<svg width="50" height="50" viewBox="0 0 50 50" fill="none" xmlns="http://www.w3.org/2000/svg">
  <circle cx="25" cy="25" r="25" fill="#7C90F6" />
  <g filter="url(#filter0_i_0_1)">
    <mask id="mask0_0_1" style="mask-type:alpha" maskUnits="userSpaceOnUse" x="0" y="0" width="50" height="50">
      <circle cx="25" cy="25" r="25" fill="#F9F9F9" />
    </mask>
    <g mask="url(#mask0_0_1)">
      <path
        d="M8.792 41.624C7.608 41.624 6.52 41.512 5.528 41.288C4.536 41.064 3.72 40.648 3.08 40.04C2.6 39.592 2.28 39.096 2.12 38.552C1.96 37.976 1.88 37.352 1.88 36.68C1.88 35.592 1.976 34.504 2.168 33.416C2.456 31.528 2.712 29.496 2.936 27.32C3.16 25.144 3.272 23.128 3.272 21.272C3.272 20.696 3.24 20.04 3.176 19.304C3.144 18.568 3.08 17.88 2.984 17.24C2.76 17.336 2.536 17.432 2.312 17.528C2.12 17.592 1.944 17.624 1.784 17.624C1.496 17.624 1.304 17.48 1.208 17.192C1.112 16.904 1.064 16.584 1.064 16.232C1.064 15.304 1.272 14.52 1.688 13.88C2.136 13.208 2.856 12.616 3.848 12.104C4.904 11.528 6.28 11.032 7.976 10.616C9.704 10.168 11.448 9.944 13.208 9.944C17.208 9.944 20.344 11.128 22.616 13.496C24.92 15.832 26.072 19.16 26.072 23.48C26.072 25.944 25.688 28.28 24.92 30.488C24.184 32.664 23.08 34.6 21.608 36.296C20.136 37.96 18.328 39.272 16.184 40.232C14.04 41.16 11.576 41.624 8.792 41.624ZM10.328 36.248C11.768 36.248 13.208 36.024 14.648 35.576C16.088 35.128 17.384 34.456 18.536 33.56C19.72 32.664 20.664 31.528 21.368 30.152C22.072 28.744 22.424 27.064 22.424 25.112C22.424 22.904 21.992 21.08 21.128 19.64C20.264 18.2 19.112 17.128 17.672 16.424C16.232 15.72 14.632 15.368 12.872 15.368C11.912 15.368 10.952 15.448 9.992 15.608C9.064 15.768 8.328 15.928 7.784 16.088C7.752 17.56 7.656 19 7.496 20.408C7.368 21.784 7.208 23.128 7.016 24.44C6.824 25.816 6.664 27.16 6.536 28.472C6.44 29.784 6.392 31.08 6.392 32.36C6.392 33.96 6.712 35.016 7.352 35.528C8.024 36.008 9.016 36.248 10.328 36.248ZM36.5788 41.624C34.1468 41.624 32.2428 40.936 30.8668 39.56C29.5228 38.152 28.8508 36.2 28.8508 33.704C28.8508 31.432 29.3468 29.368 30.3388 27.512C31.3308 25.656 32.6588 24.184 34.3228 23.096C36.0188 21.976 37.8748 21.416 39.8907 21.416C41.8108 21.416 43.3468 21.896 44.4988 22.856C45.6508 23.784 46.2268 25.032 46.2268 26.6C46.2268 27.848 45.8428 29 45.0748 30.056C44.3068 31.112 43.2828 31.96 42.0028 32.6C40.7228 33.208 39.2988 33.512 37.7308 33.512C35.8108 33.512 34.2428 33.08 33.0268 32.216C33.0588 33.688 33.5548 34.872 34.5148 35.768C35.5068 36.664 36.7708 37.112 38.3068 37.112C39.2348 37.112 40.1788 36.952 41.1388 36.632C42.1308 36.28 42.9788 35.816 43.6828 35.24C44.1308 34.856 44.5468 34.664 44.9308 34.664C45.2508 34.664 45.5068 34.776 45.6988 35C45.9228 35.192 46.0348 35.448 46.0348 35.768C46.0348 36.472 45.4268 37.4 44.2108 38.552C42.0668 40.6 39.5228 41.624 36.5788 41.624ZM37.2988 30.344C38.4508 30.344 39.4108 30.104 40.1788 29.624C40.9468 29.144 41.3307 28.536 41.3307 27.8C41.3307 27.192 41.0748 26.728 40.5628 26.408C40.0508 26.056 39.3468 25.88 38.4508 25.88C37.2668 25.88 36.2268 26.2 35.3308 26.84C34.4668 27.448 33.8428 28.312 33.4588 29.432C33.9068 29.72 34.4828 29.944 35.1868 30.104C35.8908 30.264 36.5948 30.344 37.2988 30.344Z"
        fill="white" />
    </g>
  </g>
  <defs>
    <filter id="filter0_i_0_1" x="1.06396" y="9.94397" width="45.1628" height="32.6801" filterUnits="userSpaceOnUse"
      color-interpolation-filters="sRGB">
      <feFlood flood-opacity="0" result="BackgroundImageFix" />
      <feBlend mode="normal" in="SourceGraphic" in2="BackgroundImageFix" result="shape" />
      <feColorMatrix in="SourceAlpha" type="matrix" values="0 0 0 0 0 0 0 0 0 0 0 0 0 0 0 0 0 0 127 0"
        result="hardAlpha" />
      <feOffset dy="2" />
      <feGaussianBlur stdDeviation="0.5" />
      <feComposite in2="hardAlpha" operator="arithmetic" k2="-1" k3="1" />
      <feColorMatrix type="matrix" values="0 0 0 0 0 0 0 0 0 0 0 0 0 0 0 0 0 0 0.14 0" />
      <feBlend mode="normal" in2="shape" result="effect1_innerShadow_0_1" />
    </filter>
  </defs>
</svg>